<svg width="400" height="300" viewBox="0 0 400 300" xmlns="http://www.w3.org/2000/svg">
  <defs>
    <linearGradient id="building" x1="0%" y1="0%" x2="100%" y2="100%">
      <stop offset="0%" style="stop-color:#7dffc2;stop-opacity:0.5"/>
      <stop offset="100%" style="stop-color:#7dffc2;stop-opacity:0.15"/>
    </linearGradient>
    <linearGradient id="accent" x1="0%" y1="0%" x2="100%" y2="100%">
      <stop offset="0%" style="stop-color:#7dffc2;stop-opacity:0.4"/>
      <stop offset="100%" style="stop-color:#7dffc2;stop-opacity:0.1"/>
    </linearGradient>
    <linearGradient id="detail" x1="0%" y1="0%" x2="100%" y2="100%">
      <stop offset="0%" style="stop-color:#7dffc2;stop-opacity:0.3"/>
      <stop offset="100%" style="stop-color:#7dffc2;stop-opacity:0.08"/>
    </linearGradient>
  </defs>
  
  <!-- Background -->
  <rect width="400" height="300" fill="#1a1b26"/>
  
  <!-- Main corporate building structure -->
  <rect x="120" y="100" width="160" height="120" fill="url(#building)" opacity="0.7" rx="2"/>
  
  <!-- Secondary building structure -->
  <rect x="80" y="140" width="80" height="80" fill="url(#accent)" opacity="0.5" rx="2"/>
  <rect x="240" y="140" width="80" height="80" fill="url(#accent)" opacity="0.5" rx="2"/>
  
  <!-- Building details - windows and structure -->
  <g opacity="0.6">
    <!-- Main building windows -->
    <rect x="130" y="110" width="20" height="15" fill="url(#detail)" rx="1"/>
    <rect x="160" y="110" width="20" height="15" fill="url(#detail)" rx="1"/>
    <rect x="190" y="110" width="20" height="15" fill="url(#detail)" rx="1"/>
    <rect x="220" y="110" width="20" height="15" fill="url(#detail)" rx="1"/>
    
    <rect x="130" y="135" width="20" height="15" fill="url(#detail)" rx="1"/>
    <rect x="160" y="135" width="20" height="15" fill="url(#detail)" rx="1"/>
    <rect x="190" y="135" width="20" height="15" fill="url(#detail)" rx="1"/>
    <rect x="220" y="135" width="20" height="15" fill="url(#detail)" rx="1"/>
    
    <rect x="130" y="160" width="20" height="15" fill="url(#detail)" rx="1"/>
    <rect x="160" y="160" width="20" height="15" fill="url(#detail)" rx="1"/>
    <rect x="190" y="160" width="20" height="15" fill="url(#detail)" rx="1"/>
    <rect x="220" y="160" width="20" height="15" fill="url(#detail)" rx="1"/>
    
    <!-- Side building windows -->
    <rect x="90" y="150" width="15" height="12" fill="url(#detail)" rx="1"/>
    <rect x="110" y="150" width="15" height="12" fill="url(#detail)" rx="1"/>
    <rect x="130" y="150" width="15" height="12" fill="url(#detail)" rx="1"/>
    
    <rect x="250" y="150" width="15" height="12" fill="url(#detail)" rx="1"/>
    <rect x="270" y="150" width="15" height="12" fill="url(#detail)" rx="1"/>
    <rect x="290" y="150" width="15" height="12" fill="url(#detail)" rx="1"/>
  </g>
  
  <!-- Corporate infrastructure elements -->
  <!-- Data center/server representation -->
  <rect x="140" y="200" width="120" height="8" fill="url(#accent)" opacity="0.4" rx="1"/>
  
  <!-- Connection lines representing AI infrastructure -->
  <g opacity="0.3">
    <line x1="200" y1="220" x2="200" y2="240" stroke="url(#detail)" stroke-width="1"/>
    <line x1="180" y1="220" x2="180" y2="240" stroke="url(#detail)" stroke-width="1"/>
    <line x1="220" y1="220" x2="220" y2="240" stroke="url(#detail)" stroke-width="1"/>
  </g>
  
  <!-- Professional grid foundation -->
  <g opacity="0.15">
    <line x1="0" y1="250" x2="400" y2="250" stroke="url(#detail)" stroke-width="0.5"/>
    <line x1="0" y1="260" x2="400" y2="260" stroke="url(#detail)" stroke-width="0.5"/>
    <line x1="0" y1="270" x2="400" y2="270" stroke="url(#detail)" stroke-width="0.5"/>
  </g>
  
  <!-- Corporate accent elements -->
  <g opacity="0.4">
    <rect x="20" y="20" width="3" height="3" fill="url(#accent)" rx="1"/>
    <rect x="377" y="20" width="3" height="3" fill="url(#accent)" rx="1"/>
    <rect x="20" y="277" width="3" height="3" fill="url(#accent)" rx="1"/>
    <rect x="377" y="277" width="3" height="3" fill="url(#accent)" rx="1"/>
  </g>
</svg>
